<svg width="520" height="500" xmlns="http://www.w3.org/2000/svg">
  <g transform="translate(18.124)">
    <path style="display:inline;fill:#ffd42a;stroke-opacity:1;paint-order:markers stroke fill" d="m8.942 290.099-17.88.006 8.935-15.488z"/>
    <ellipse style="fill:red;stroke-width:0;" cx="-1.634" cy="285.247" rx="1.794" ry="1.687"/>
    <path style="fill:red;stroke-width:0" d="M-5.838 285.059H6.48v.402H-5.838z"/>
    <path style="fill:red;stroke-width:0" transform="matrix(-.00149 -1 .99974 -.02284 0 0)" d="M-289.283-2.233h8.245v.402h-8.245z"/>
    <path style="fill:red;stroke-width:0" d="M-6.611 282.34c-.002 0-.006 0-.008.002a.02.02 0 0 0-.01.014v.004c.008-.002.016-.012.022-.02zm1.523.705a2.32 2.32 0 0 0-.1.135 1.166 1.166 0 0 0-.068.132l7.586 4.184.057-.068a.72.72 0 0 0 .093-.123l.04-.06z"/>
    <path style="fill:red;stroke-width:0" d="m-4.414 280.17-.013.013-.01-.019zm.97 1.217 4.18 7.653c-.034.01-.066.023-.1.035a.856.856 0 0 0-.166.073l-4.167-7.627a1.38 1.38 0 0 1 .046-.033c.026-.02.05-.04.081-.05.043-.015.084-.031.125-.05zm4.745 8.687.017.032-.042-.013a.154.154 0 0 0 .025-.02z"/>
    <path style="fill:red;stroke-width:0" d="M3.58 282.043c.007.008.015.017.024.018v-.004a.018.018 0 0 0-.012-.012c-.002-.001-.007-.003-.008-.002zm-1.506.82-7.486 4.766c.014.02.03.037.045.057.031.04.063.08.103.113l.065.064 7.467-4.75a1.14 1.14 0 0 0-.08-.125 2.274 2.274 0 0 0-.114-.125z"/>
    <path style="fill:red;stroke-width:0" d="m1.294 280.17.013.013.01-.019zm-.97 1.217-4.18 7.653c.034.01.066.023.1.035a.91.91 0 0 1 .166.073l4.167-7.627a1.38 1.38 0 0 0-.046-.033c-.026-.02-.05-.04-.081-.05a1.355 1.355 0 0 1-.125-.05zm-4.745 8.687-.017.032.042-.013a.154.154 0 0 1-.025-.02z"/>
    <g style="display:inline">
      <path style="display:inline;fill:red;stroke-width:0" d="m-302.807-81.955-.007-.028-.023-.075c-.012-.03-.029-.06-.042-.089-.016-.038-.033-.076-.042-.114a1.14 1.14 0 0 1-.018-.096h-5.852v.4z" transform="matrix(-.27795 -1.00112 1.05478 .12404 .12 -10.624)"/>
      <path style="display:inline;fill:red;stroke-width:0" d="M36.956 296.047v.006h-.001v-.005zm-.042 0c0 .005.003.01.004.016h-.002v-.005l-.001-.002c0-.005-.001-.008-.003-.01zm-.02 0 .002.006c0 .012.001.023.003.035l.01.033a.232.232 0 0 0 .018.049c.005.008.007.015.01.024a.148.148 0 0 1 .017.046l.01.033a.313.313 0 0 0 .008.027c-.003 0-.007.002-.006.01 0 .012.004.025.006.037v.006l.001.012c.003.011.01.016.016.016v.004c0 .01.002.022.004.033l.003.035-6.2-.001-.002-.398zm.085.207v.008a.034.034 0 0 0-.002-.008z" transform="matrix(-1.02116 -.28619 .11139 1.03153 .12 -10.624)"/>
      <path style="display:inline;fill:red;stroke-width:0" d="M-302.169-79.04v.401h-6.21l-.002-.4z" transform="matrix(.27795 -1.00112 -1.05478 .12404 .12 -10.624)"/>
      <path style="display:inline;fill:red;stroke-width:0" d="M-284.94-208.39c0-.004-.002-.007-.003-.009a3.12 3.12 0 0 1-.039-.13c-.009-.033-.018-.065-.022-.098-.003-.003-.006-.006-.007-.01l-.01-.035c-.001-.01-.006-.02-.008-.03l-.006-.02c-.003-.008-.004-.018-.006-.026l-.005-.022-.005-.016h-6.048l-.001.398z" transform="matrix(-.71591 -.76638 .9962 -.3604 .12 -10.624)"/>
      <path style="display:inline;fill:red;stroke-width:0" d="M-284.94-208.39c0-.004-.002-.007-.003-.009a3.12 3.12 0 0 1-.039-.13c-.009-.033-.018-.065-.022-.098-.003-.003-.006-.006-.007-.01l-.01-.035c-.001-.01-.006-.02-.008-.03l-.006-.02c-.003-.008-.004-.018-.006-.026l-.005-.022-.005-.016h-6.048l-.001.398z" transform="matrix(-.71591 -.76638 .9962 -.3604 .12 -10.624)"/>
      <path style="display:inline;fill:red;stroke-width:0" d="M31.99 294.641h-6.212v.399h6.214z" transform="matrix(1.01948 -.29186 -.10537 1.03214 .12 -10.624)"/>
      <path style="display:inline;fill:red;stroke-width:0" d="m-129.575 207.411-6.213.001.001.399h6.212z" transform="matrix(.7209 -.7619 .45292 .93827 .12 -10.624)"/>
    </g>
  </g>
</svg>
