<svg xmlns="http://www.w3.org/2000/svg">
  <g style="display:inline">
    <path style="display:inline;fill:#999;stroke-linecap:square;stroke-linejoin:miter;stroke-dasharray:none;stroke-opacity:1;paint-order:markers stroke fill" d="M185.5 225.013h109v109h-109z"/>
    <path style="display:inline;fill:gray;fill-opacity:1;stroke:#000;stroke-width:1;stroke-linecap:square;stroke-linejoin:miter;stroke-miterlimit:4;stroke-dasharray:none;stroke-opacity:1;paint-order:markers stroke fill" d="m3 5-5.83.098-3-5L-3-5l5.83-.098 3 5z" transform="translate(195 325) scale(.78035)"/>
    <path style="display:inline;fill:gray;fill-opacity:1;stroke:#000;stroke-width:1;stroke-linecap:square;stroke-linejoin:miter;stroke-miterlimit:4;stroke-dasharray:none;stroke-opacity:1;paint-order:markers stroke fill" d="m3 5-5.83.098-3-5L-3-5l5.83-.098 3 5z" transform="translate(195 235) scale(.78035)"/>
    <path style="display:inline;fill:gray;fill-opacity:1;stroke:#000;stroke-width:1;stroke-linecap:square;stroke-linejoin:miter;stroke-miterlimit:4;stroke-dasharray:none;stroke-opacity:1;paint-order:markers stroke fill" d="m3 5-5.83.098-3-5L-3-5l5.83-.098 3 5z" transform="translate(285 235) scale(.78035)"/>
    <path style="display:inline;fill:gray;fill-opacity:1;stroke:#000;stroke-width:1;stroke-linecap:square;stroke-linejoin:miter;stroke-miterlimit:4;stroke-dasharray:none;stroke-opacity:1;paint-order:markers stroke fill" d="m3 5-5.83.098-3-5L-3-5l5.83-.098 3 5z" transform="translate(285 325) scale(.78035)"/>
  </g>
</svg>
