<svg xmlns="http://www.w3.org/2000/svg">
  <g style="fill:#b3b3b3">
    <path style="fill:#ccc;stroke:#fff0;stroke-width:0" d="M62.4 395.402h-1.53c-.39 0-.597 0-1.556.103-.96.104-2.672.311-4.487.83-1.816.519-3.735 1.349-5.084 2.646-1.349 1.297-2.127 3.06-2.75 5.135-.622 2.075-1.089 4.461-1.296 7.988-.207 3.528-.156 8.196.156 11.256.311 3.06.882 4.513 3.683 5.342 2.802.83 7.833 1.037 24.794 1.193 16.962.155 45.853.26 60.324.311 14.472.052 14.524.052 14.55 1.738.025 1.686.025 5.058.05 6.64.026 1.582.078 1.374-15.586 1.374s-47.045.207-63.617.103c-16.572-.103-18.336-.518-20.125-.881-1.79-.364-3.605-.675-5.576-1.764-1.972-1.089-4.098-2.956-5.473-5.938-1.375-2.983-1.998-7.08-2.335-10.84-.337-3.762-.389-7.185-.285-10.894.104-3.708.363-7.702 1.4-10.66 1.038-2.956 2.853-4.875 4.435-6.354 1.582-1.478 2.93-2.516 4.565-3.475 1.634-.96 3.553-1.842 5.473-2.412 1.919-.57 3.838-.83 5.576-.96 1.738-.13 3.294-.13 4.849-.13m135.258-4.911c-2.694.018-5.596.236-8.403.576-3.743.453-7.318 1.12-10.299 2.17-2.98 1.049-5.364 2.48-7.367 4.506-2.003 2.026-3.624 4.649-4.625 6.914-1.001 2.265-1.383 4.171-1.621 6.746s-.333 5.817-.38 9.035c-.049 3.219-.05 6.413-.073 8.082-.024 1.669-.07 1.812 1.527 1.86 1.598.047 4.838 0 6.436-.024 1.597-.024 1.55-.023 1.502-2.478-.048-2.455-.096-7.367.261-11.229.358-3.862 1.122-6.676 2.123-8.75 1.002-2.074 2.24-3.409 3.743-4.506 1.502-1.097 3.266-1.957 4.744-2.553 1.478-.596 2.67-.928 4.601-1.119 1.932-.19 4.602-.238 6.008-.261 1.407-.024 1.55-.025 2.504.023s2.718.142 4.72.523c2.003.382 4.244 1.05 5.722 1.766 1.478.716 2.194 1.479 3.052 2.266.859.786 1.858 1.596 2.526 2.382.667.787 1.001 1.55 1.168 2.29.166.738.166 1.453.166 2.168l.787.08h.369c.176-.005.351-.016.527-.022a22.818 22.818 0 0 1 .787-.012h1.793c.121-.003.243.008.364.016a18.811 18.811 0 0 0 .662.016h.779c.103 0 .208-.011.31-.018a4.11 4.11 0 0 1 .368-.01c.137.01.273.029.41.04a6.6 6.6 0 0 0 .314.016c.119.002.238.004.356.004.12.004.237-.015.355-.029l.276-.027c.028-1.448-.003-2.9-.446-4.367-.524-1.74-1.62-3.505-3.289-5.555-1.668-2.05-3.91-4.387-5.865-5.961-1.955-1.574-3.624-2.385-5.865-3.076-2.241-.692-5.053-1.263-8.414-1.43a46.524 46.524 0 0 0-2.614-.053zm21.699 20.76.215.021c.007-.005.021-.004.035 0 .089-.004.179-.007.267-.016l.059-.006h-.332zm-28.056 28.482c17.892-.046 35.784-.092 45.767-.415 9.983-.323 12.058-.922 13.81-2.029 1.752-1.106 3.181-2.72 4.91-4.657 1.73-1.937 3.758-4.196 6.502-6.34 2.744-2.145 6.202-4.174 10.722-5.718 4.519-1.545 10.098-2.606 15.125-3.274 5.026-.669 9.499-.945 15.055-1.153a646.401 646.401 0 0 1 18.145-.392c5.949-.046 11.205 0 15.194.277 3.989.277 6.71.784 9.2 1.568 2.49.784 4.749 1.845 6.778 3.228 2.029 1.384 3.827 3.09 4.91 4.543 1.084 1.452 1.452 2.651 1.637 4.15.184 1.498.184 3.297.115 4.264-.07.968-.208 1.107-1.706 1.176-1.498.069-4.357.069-5.787-.046-1.43-.115-1.43-.345-1.476-.83a53.454 53.454 0 0 0-.253-2.051c-.116-.83-.254-1.752-.715-2.467-.46-.715-1.244-1.223-2.305-1.707-1.06-.484-2.397-.945-3.666-1.153-1.268-.208-2.467-.162-4.173-.185-1.706-.023-3.92-.115-7.839-.069-3.92.046-9.545.23-16.416.507-6.87.277-14.986.646-20.496.946-5.51.3-8.416.53-10.468.737-2.052.208-3.25.392-4.519.715-1.268.323-2.605.784-3.69 1.522-1.083.738-1.913 1.752-2.605 2.49-.691.738-1.245 1.199-1.89 1.937-.646.738-1.384 1.752-2.19 2.743a36.512 36.512 0 0 1-2.86 3.113c-1.176 1.152-2.651 2.49-4.887 3.573-2.236 1.084-5.234 1.914-7.931 2.582-2.698.67-5.095 1.176-7.608 1.5-2.513.322-5.142.46-14.318.599-9.176.138-24.9.276-40.625.415"/>
  </g>
  <g style="display:inline">
    <path style="fill:#999;fill-opacity:1;stroke-opacity:1;stroke-dasharray:none;paint-order:markers stroke fill" d="M163.693 419.81v1.807h.774v8.233h-13.621v-.602h-1.72v11.754h1.72v-.736h13.62v19.445h11.114v-19.445h13.75v.736h1.719v-11.754h-1.719v.602h-13.75v-8.233h.656v-1.806h-12.543zm-23.888 27.66c-.36 0-.776.003-1.268.007-1.968.014-5.16.044-6.8.044-.502 0-.858-.002-1.112.03h-6.97v7.336h7.245v-.032c.828-.026 2.36.004 3.387.018 1.059.015 1.565.014 2.027.014.463 0 .881.001 1.254.031s.701.089 1.104.402c.402.314.879.881 1.117 1.657.238.775.238 1.759.238 2.742l9.932-.178c.03-.924.06-1.85.045-2.67-.015-.82-.075-1.536-.254-2.281a8.215 8.215 0 0 0-.94-2.297 9.94 9.94 0 0 0-1.789-2.191 9.8 9.8 0 0 0-2.326-1.567c-.85-.418-1.774-.746-2.61-.91-.625-.123-1.201-.153-2.28-.154zm-4.518 12.714v13.209l-.088.002v-8.444s-20.072 2.15-20.072 5.018c0 1.373-.034 2.797-.068 3.924l-.043.002-.018 1.658-.016.437h.012c-.023 2.362-.066 6.699-.12 8.94-.071 2.875 19.564 5.119 20.413 5.215v5.707h50.424v-35.668h-50.424z"/>
    <path style="display:inline;fill:red;stroke-width:1;stroke-dasharray:none;stroke:#000;stroke-opacity:1;paint-order:markers stroke fill" d="M137.359 460.176h20.394v35.642h-20.394z"/>
    <g style="display:inline">
      <path style="display:inline;fill:#333;stroke:#000;stroke-opacity:1;stroke-width:.66586197;stroke-dasharray:none;paint-order:markers stroke fill" d="M139.242 462.368c-.04.023-1.096.028-1.136.005-.04-.022-.572-.935-.572-.98 0-.046.524-.964.563-.987.04-.023 1.097-.028 1.136-.005.04.023.572.936.573.981 0 .046-.525.964-.564.986z" transform="matrix(.73216 0 0 .77013 37.732 106.194)"/>
      <path style="display:inline;fill:#333;stroke:#000;stroke-opacity:1;stroke-width:.66586197;stroke-dasharray:none;paint-order:markers stroke fill" d="M139.242 462.368c-.04.023-1.096.028-1.136.005-.04-.022-.572-.935-.572-.98 0-.046.524-.964.563-.987.04-.023 1.097-.028 1.136-.005.04.023.572.936.573.981 0 .046-.525.964-.564.986z" transform="matrix(.73216 0 0 .77013 54.849 106.097)"/>
      <path style="display:inline;fill:#333;stroke:#000;stroke-opacity:1;stroke-width:.5;stroke-dasharray:none;paint-order:markers stroke fill" d="M139.242 462.368c-.04.023-1.096.028-1.136.005-.04-.022-.572-.935-.572-.98 0-.046.524-.964.563-.987.04-.023 1.097-.028 1.136-.005.04.023.572.936.573.981 0 .046-.525.964-.564.986z" transform="translate(17.17 15.78)"/>
      <path style="display:inline;fill:#333;stroke:#000;stroke-opacity:1;stroke-width:.5;stroke-dasharray:none;paint-order:markers stroke fill" d="M139.242 462.368c-.04.023-1.096.028-1.136.005-.04-.022-.572-.935-.572-.98 0-.046.524-.964.563-.987.04-.023 1.097-.028 1.136-.005.04.023.572.936.573.981 0 .046-.525.964-.564.986z" transform="translate(17.334 32.787)"/>
      <path style="display:inline;fill:#333;stroke:#000;stroke-opacity:1;stroke-width:.5;stroke-dasharray:none;paint-order:markers stroke fill" d="M139.242 462.368c-.04.023-1.096.028-1.136.005-.04-.022-.572-.935-.572-.98 0-.046.524-.964.563-.987.04-.023 1.097-.028 1.136-.005.04.023.572.936.573.981 0 .046-.525.964-.564.986z" transform="translate(.572 15.862)"/>
      <path style="display:inline;fill:#333;stroke:#000;stroke-opacity:1;stroke-width:.5;stroke-dasharray:none;paint-order:markers stroke fill" d="M139.242 462.368c-.04.023-1.096.028-1.136.005-.04-.022-.572-.935-.572-.98 0-.046.524-.964.563-.987.04-.023 1.097-.028 1.136-.005.04.023.572.936.573.981 0 .046-.525.964-.564.986z" transform="translate(.164 32.705)"/>
    </g>
  </g>
  <rect style="fill:#4d4d4d;stroke-width:0;stroke:#fff0" width="24.997" height=".983" x="159.93" y="461.672" rx=".3"/>
  <rect style="fill:#4d4d4d;stroke-width:0;stroke:#fff0" width="24.997" height=".983" x="159.961" y="463.33" rx=".3" ry=".3"/>
  <rect style="fill:#4d4d4d;stroke-width:0;stroke:#fff0" width="24.997" height=".983" x="160.022" y="465.111" rx=".3" ry=".3"/>
  <rect style="fill:#4d4d4d;stroke-width:0;stroke:#fff0" width="24.997" height=".983" x="159.961" y="466.769" rx=".3" ry=".3"/>
  <rect style="fill:#4d4d4d;stroke-width:0;stroke:#fff0" width="24.997" height=".983" x="159.899" y="468.305" rx=".3" ry=".3"/>
  <rect style="fill:#4d4d4d;stroke-width:0;stroke:#fff0" width="24.997" height=".983" x="159.961" y="469.901" rx=".3" ry=".3"/>
  <rect style="fill:#4d4d4d;stroke-width:0;stroke:#fff0" width="24.997" height=".983" x="160.001" y="471.492" rx=".3" ry=".3"/>
  <rect style="fill:#4d4d4d;stroke-width:0;stroke:#fff0" width="24.997" height=".983" x="160.001" y="473.06" rx=".3" ry=".3"/>
  <rect style="fill:#4d4d4d;stroke-width:0;stroke:#fff0" width="24.997" height=".983" x="159.949" y="474.627" rx=".3" ry=".3"/>
  <rect style="fill:#4d4d4d;stroke-width:0;stroke:#fff0" width="24.997" height=".983" x="159.949" y="476.195" rx=".3" ry=".3"/>
  <rect style="fill:#4d4d4d;stroke-width:0;stroke:#fff0" width="24.997" height=".983" x="159.949" y="477.815" rx=".3" ry=".3"/>
  <rect style="fill:#4d4d4d;stroke-width:0;stroke:#fff0" width="24.997" height=".983" x="160.001" y="479.487" rx=".3" ry=".3"/>
  <rect style="fill:#4d4d4d;stroke-width:0;stroke:#fff0" width="24.997" height=".983" x="160.001" y="481.003" rx=".3" ry=".3"/>
  <rect style="fill:#4d4d4d;stroke-width:0;stroke:#fff0" width="24.997" height=".983" x="160.027" y="482.675" rx=".3" ry=".3"/>
  <rect style="fill:#4d4d4d;stroke-width:0;stroke:#fff0" width="24.997" height=".983" x="160.027" y="484.243" rx=".3" ry=".3"/>
  <rect style="fill:#4d4d4d;stroke-width:0;stroke:#fff0" width="24.997" height=".983" x="160.027" y="485.863" rx=".3" ry=".3"/>
  <rect style="fill:#4d4d4d;stroke-width:0;stroke:#fff0" width="24.997" height=".983" x="160.08" y="487.482" rx=".3" ry=".3"/>
  <rect style="fill:#4d4d4d;stroke-width:0;stroke:#fff0" width="24.997" height=".983" x="159.975" y="489.05" rx=".3" ry=".3"/>
  <rect style="fill:#4d4d4d;stroke-width:0;stroke:#fff0" width="24.997" height=".983" x="160.106" y="490.618" rx=".3" ry=".3"/>
  <rect style="fill:#4d4d4d;stroke-width:0;stroke:#fff0" width="24.997" height=".983" x="160.106" y="492.238" rx=".3" ry=".3"/>
  <rect style="fill:#4d4d4d;stroke-width:0;stroke:#fff0" width="24.997" height=".983" x="160.158" y="493.858" rx=".3" ry=".3"/>
</svg>
