<svg width="550" height="500" version="1.1" id="svg5" xmlns:xlink="http://www.w3.org/1999/xlink" xmlns="http://www.w3.org/2000/svg">
  <defs id="defs2">
    <linearGradient id="linearGradient3651">
      <stop style="stop-color:#000;stop-opacity:1" offset="0" id="stop3649"/>
    </linearGradient>
    <linearGradient id="linearGradient898">
      <stop style="stop-color:#000;stop-opacity:1" offset="0" id="stop896"/>
    </linearGradient>
    <linearGradient id="linearGradient4079">
      <stop style="stop-color:#000;stop-opacity:1" offset="0" id="stop4077"/>
    </linearGradient>
    <linearGradient id="linearGradient4073">
      <stop style="stop-color:#000;stop-opacity:1" offset="0" id="stop4071"/>
    </linearGradient>
    <linearGradient id="linearGradient4067">
      <stop style="stop-color:#000;stop-opacity:1" offset="0" id="stop4065"/>
    </linearGradient>
    <linearGradient id="linearGradient4061">
      <stop style="stop-color:#000;stop-opacity:1" offset="0" id="stop4059"/>
    </linearGradient>
    <linearGradient id="linearGradient4055">
      <stop style="stop-color:#000;stop-opacity:1" offset="0" id="stop4053"/>
    </linearGradient>
    <linearGradient id="linearGradient4049">
      <stop style="stop-color:#000;stop-opacity:1" offset="0" id="stop4047"/>
    </linearGradient>
    <linearGradient id="linearGradient4043">
      <stop style="stop-color:#000;stop-opacity:1" offset="0" id="stop4041"/>
    </linearGradient>
    <linearGradient id="linearGradient4037">
      <stop style="stop-color:#000;stop-opacity:1" offset="0" id="stop4035"/>
    </linearGradient>
    <linearGradient id="linearGradient4031">
      <stop style="stop-color:#000;stop-opacity:1" offset="0" id="stop4029"/>
    </linearGradient>
    <linearGradient id="linearGradient4025">
      <stop style="stop-color:#000;stop-opacity:1" offset="0" id="stop4023"/>
    </linearGradient>
    <linearGradient id="linearGradient4019">
      <stop style="stop-color:#000;stop-opacity:1" offset="0" id="stop4017"/>
    </linearGradient>
    <linearGradient id="linearGradient4013">
      <stop style="stop-color:#000;stop-opacity:1" offset="0" id="stop4011"/>
    </linearGradient>
    <linearGradient id="linearGradient3281">
      <stop style="stop-color:#000;stop-opacity:1" offset="0" id="stop3279"/>
    </linearGradient>
    <linearGradient xlink:href="#linearGradient6292" id="linearGradient6312" x1="185.06396" y1="307.84872" x2="185.30064" y2="271.59473" gradientUnits="userSpaceOnUse" spreadMethod="reflect" gradientTransform="translate(80.653335 -.84651185)"/>
    <linearGradient id="linearGradient6292">
      <stop style="stop-color:#fd5;stop-opacity:1" offset="0" id="stop6288"/>
      <stop style="stop-color:#ff0b0b;stop-opacity:.79874212" offset=".34793249" id="stop6290"/>
    </linearGradient>
    <path id="rect1769" d="M22.105741 415.87717h21.899146v53.50829H22.105741z"/>
    <path id="rect1763" d="M21.69255 411.53866h20.24638v55.987438H21.69255z"/>
    <path id="rect1753" d="M24.171699 418.35632h17.973827v49.789567H24.171699z"/>
    <path id="rect1085" d="M29.729289 398.83578h29.729289v67.95266H29.729289z"/>
  </defs>
  <g id="g3729" transform="translate(.30381812 -.03934207)" style="display:inline">
    <g id="g3621" style="fill:#b3b3b3">
      <path style="fill:#ccc" d="M126.29706 394.555h-1.52916c-.38902 0-.59649 0-1.55616.10369s-2.67133.31116-4.48698.82981c-1.81564.51865-3.73478 1.34855-5.08374 2.64565-1.34895 1.29709-2.12698 3.06062-2.74939 5.13558-.62242 2.07496-1.08923 4.4609-1.29663 7.9882-.2074 3.52729-.15553 8.19546.15592 11.25588.31146 3.06041.88201 4.51273 3.6833 5.34206 2.80129.82933 7.83254 1.03681 24.79415 1.1924 16.9616.15559 45.85236.25932 60.32398.31119 14.47161.0519 14.52345.0519 14.54888 1.73816.0254 1.6863.0254 5.05775.0513 6.63962.0258 1.58187.0777 1.3744-15.58662 1.37405-15.66433-.00036-47.04477.20712-63.61702.10351-16.57225-.1036-18.33577-.51855-20.12531-.88168-1.78953-.36313-3.60493-.67434-5.57603-1.76325-1.9711-1.08891-4.09771-2.95618-5.4727-5.93862-1.375-2.98244-1.99742-7.08005-2.33465-10.84068-.33723-3.76064-.3891-7.18396-.2854-10.89271.10371-3.70875.36305-7.70263 1.40048-10.65966 1.03743-2.95704 2.85282-4.87617 4.43494-6.35453 1.58211-1.47836 2.93069-2.51573 4.56476-3.47538 1.63406-.95964 3.5532-1.84141 5.47259-2.41193 1.91939-.57052 3.83853-.82987 5.57625-.95948 1.73772-.12962 3.29377-.12962 4.84886-.12962" id="path3615"/>
      <path id="path3617" style="fill:#ccc" d="M261.7105 379.99529c-2.69323.0178-5.5951.23648-8.40234.57617-3.74301.45292-7.31854 1.12097-10.29883 2.16992-2.98029 1.04896-5.36436 2.47921-7.36719 4.50586-2.00282 2.02665-3.62371 4.64898-4.625 6.91406-1.00129 2.26509-1.38275 4.17125-1.62109 6.7461-.23834 2.57483-.3332 5.8167-.38086 9.03515-.0477 3.21846-.0483 6.41341-.0723 8.08203-.0239 1.66864-.0705 1.812 1.52735 1.85938 1.59786.0474 4.8382.00035 6.43554-.0234 1.59735-.0238 1.55014-.0235 1.50196-2.47851-.0482-2.45503-.0958-7.36621.26171-11.22852s1.12168-6.67556 2.12305-8.75 2.24002-3.40908 3.74219-4.50586c1.50216-1.09678 3.26591-1.95673 4.74414-2.55273 1.47823-.59601 2.67035-.9285 4.60156-1.11914 1.93122-.19064 4.60122-.23789 6.00781-.26172 1.40661-.0238 1.55028-.0243 2.50391.0234.95363.0477 2.71805.14185 4.7207.52344 2.00266.38159 4.24271 1.05008 5.72071 1.76563 1.47799.71554 2.19442 1.47896 3.05273 2.26562.85832.78666 1.85814 1.59593 2.52539 2.38281.66725.7869 1.00135 1.55012 1.16797 2.28907.16662.73894.16602 1.45376.16602 2.16797l.78711.0801h.36914c.17613-.005.35124-.0155.52734-.0215.15119-.005.30186-.008.45313-.01.1112-.001.22274-.002.33398-.002.11122-.00023.22276.00005.33398 0 .10565-.00003.21076 0 .31641 0 .12184-.00001.24339 0 .36523 0h.77735c.12105-.003.24262.008.36328.0156.10877.007.21718.01.32617.0117.11193.002.22399.004.33594.004.14737.00038.29406-.00009.4414 0 .11272.00006.22519-.00001.3379 0 .10338.001.20752-.0106.31054-.0176.12217-.008.24483-.0126.36719-.01.13697.0109.27329.0289.41016.041.10501.008.20918.0126.31445.0156.11819.002.23726.004.35547.004.11926.004.23746-.0152.35547-.0293.0922-.009.18368-.0183.27539-.0273.0284-1.4481-.003-2.89895-.44531-4.36718-.52411-1.74025-1.62038-3.50435-3.28907-5.55469-1.66869-2.05034-3.91043-4.38725-5.86523-5.96094-1.9548-1.57369-3.62423-2.38463-5.86524-3.07617-2.241-.69155-5.05247-1.26266-8.41406-1.42969-.8404-.0418-1.71554-.0587-2.61328-.0527zm21.69922 20.75976.21484.0215c.007-.005.0216-.004.0352 0 .0889-.004.17906-.007.26758-.0156.0196-.002.039-.004.0586-.006h-.33203z"/>
      <path style="fill:#ccc" d="M255.35398 429.23777c17.89236-.0461 35.78372-.0922 45.76676-.4151 9.98305-.32289 12.05803-.92233 13.80994-2.0289 1.7519-1.10658 3.18133-2.72045 4.91055-4.65717 1.72921-1.93672 3.75809-4.19615 6.50196-6.34048 2.74386-2.14434 6.20217-4.17322 10.72141-5.71795 4.51924-1.54474 10.09865-2.60529 15.12495-3.27387 5.0263-.66858 9.49905-.94524 15.05561-1.15273 5.55656-.20749 12.19652-.34582 18.145-.39191 5.94848-.0461 11.20512.00001 15.19388.27679 3.98876.27677 6.7093.78399 9.19939 1.56808 2.49008.78409 4.74951 1.84464 6.77836 3.22821 2.02884 1.38358 3.82716 3.08967 4.91047 4.54232 1.0833 1.45264 1.45219 2.65153 1.63645 4.15008.18426 1.49855.18426 3.29687.11509 4.26472-.0692.96785-.2075 1.10618-1.70566 1.17534-1.49816.0692-4.35703.0692-5.787-.0456-1.42996-.11478-1.42996-.34533-1.476-.82946-.046-.48413-.13827-1.2219-.25353-2.05191-.11527-.83002-.25361-1.75223-.71423-2.46716-.46063-.71492-1.24452-1.22214-2.30508-1.70648-1.06056-.48435-2.39778-.94546-3.66598-1.15319-1.26821-.20773-2.46709-.16162-4.1732-.18463-1.70612-.023-3.91944-.11524-7.83903-.0692-3.91959.0461-9.54511.23052-16.41586.50719-6.87074.27667-14.98624.64556-20.49664.94527-5.51041.29972-8.41538.53027-10.46741.73775-2.05203.20747-3.25091.39192-4.51912.71466-1.26821.32275-2.60543.78386-3.6894 1.52182-1.08397.73795-1.91396 1.75239-2.60555 2.49009-.69159.7377-1.24492 1.19881-1.89061 1.93673-.64568.73793-1.38345 1.75237-2.19037 2.74372-.80692.99134-1.68303 1.95968-2.85885 3.11243-1.17582 1.15276-2.65136 2.48997-4.8875 3.57354-2.23614 1.08356-5.23335 1.91356-7.93087 2.5822-2.69751.66864-5.09527 1.17585-7.60829 1.49869-2.51303.32284-5.14135.46117-14.31772.59953-9.17637.13836-24.90016.27669-40.62526.41503" id="path3619"/>
    </g>
    <path id="rect3645" style="display:inline;fill:#999;fill-opacity:1;stroke-width:1;stroke:#000;stroke-opacity:1;stroke-dasharray:none;paint-order:markers stroke fill" d="M227.59071 418.96317v1.80664h.77344v8.23242h-13.62109v-.60156h-1.7168v11.75586h1.7168v-.73828h13.62109v19.91797h-29.17773v13.21093l-.08985.00196v-8.44531s-20.07226 2.15212-20.07226 5.01953c0 1.37366-.03408 2.79685-.06836 3.92382l-.04102.00196s-.01309 1.16675-.01758 1.64062c-.00349.08158-.01562.45508-.01562.45508h.01172c-.02286 2.36173-.06836 6.69851-.12305 8.93945-.07014 2.87581 19.57766 5.11845 20.41602 5.21289v5.70899h50.42187v-35.66992h-10.1289v-19.91797h13.75v.73828h1.71679v-11.75586h-1.71679v.60156h-13.75v-8.23242h.65429v-1.80664h-12.54297zm-23.88867 27.66016c-.35977-.00047-.77546.00213-1.26758.00586-1.96847.01491-5.15856.04471-6.79882.04492-.49932.00006-.85344-.00223-1.10743.02929h-6.97656v7.3379h7.24805v-.03125c.82763-.02589 2.35837.00117 3.38476.01562 1.05878.01491 1.56701.01563 2.0293.01563.46229 0 .87907-.00064 1.25195.02929.37289.02993.701.0907 1.10352.4043.40252.3136.87904.87888 1.11719 1.6543.23814.77541.23828 1.76092.23828 2.74414l9.93164-.17969c.0298-.9236.05977-1.84784.04492-2.66797-.01485-.82013-.07319-1.53569-.25195-2.28125-.17877-.74556-.47738-1.52137-.93946-2.29687-.46207-.77551-1.08831-1.55196-1.78906-2.19336-.70075-.64141-1.47618-1.14674-2.32617-1.56446-.84999-.41771-1.77418-.7459-2.60938-.91015-.6264-.12319-1.2039-.15485-2.2832-.15625z"/>
    <g id="g15561">
      <rect style="fill:#4d4d4d;stroke-width:1.07682" id="rect3687" width="24.996719" height=".98267198" x="223.82787" y="460.82504" rx=".30000001" ry=".30000001"/>
      <rect style="fill:#4d4d4d;stroke-width:1.07682" id="rect3689" width="24.996719" height=".98267198" x="223.85857" y="462.48331" rx=".30000001" ry=".30000001"/>
      <rect style="fill:#4d4d4d;stroke-width:1.07682" id="rect3691" width="24.996719" height=".98267198" x="223.91998" y="464.2644" rx=".30000001" ry=".30000001"/>
      <rect style="fill:#4d4d4d;stroke-width:1.07682" id="rect3693" width="24.996719" height=".98267198" x="223.85857" y="465.92267" rx=".30000001" ry=".30000001"/>
      <rect style="fill:#4d4d4d;stroke-width:1.07682" id="rect3695" width="24.996719" height=".98267198" x="223.79715" y="467.4581" rx=".30000001" ry=".30000001"/>
      <rect style="fill:#4d4d4d;stroke-width:1.07682" id="rect3697" width="24.996719" height=".98267198" x="223.85857" y="469.05493" rx=".30000001" ry=".30000001"/>
      <rect style="fill:#4d4d4d;stroke-width:1.07682" id="rect3699" width="24.996719" height=".98267198" x="223.89928" y="470.64542" rx=".30000001" ry=".30000001"/>
      <rect style="fill:#4d4d4d;stroke-width:1.07682" id="rect3701" width="24.996719" height=".98267198" x="223.89928" y="472.2131" rx=".30000001" ry=".30000001"/>
      <rect style="fill:#4d4d4d;stroke-width:1.07682" id="rect3703" width="24.996719" height=".98267198" x="223.84702" y="473.78079" rx=".30000001" ry=".30000001"/>
      <rect style="fill:#4d4d4d;stroke-width:1.07682" id="rect3705" width="24.996719" height=".98267198" x="223.84702" y="475.34851" rx=".30000001" ry=".30000001"/>
      <rect style="fill:#4d4d4d;stroke-width:1.07682" id="rect3707" width="24.996719" height=".98267198" x="223.84702" y="476.96848" rx=".30000001" ry=".30000001"/>
      <rect style="fill:#4d4d4d;stroke-width:1.07682" id="rect3709" width="24.996719" height=".98267198" x="223.89926" y="478.64066" rx=".30000001" ry=".30000001"/>
      <rect style="fill:#4d4d4d;stroke-width:1.07682" id="rect3711" width="24.996719" height=".98267198" x="223.89928" y="480.15613" rx=".30000001" ry=".30000001"/>
      <rect style="fill:#4d4d4d;stroke-width:1.07682" id="rect3713" width="24.996719" height=".98267198" x="223.92542" y="481.82834" rx=".30000001" ry=".30000001"/>
      <rect style="fill:#4d4d4d;stroke-width:1.07682" id="rect3715" width="24.996719" height=".98267198" x="223.92542" y="483.39606" rx=".30000001" ry=".30000001"/>
      <rect style="fill:#4d4d4d;stroke-width:1.07682" id="rect3717" width="24.996719" height=".98267198" x="223.92542" y="485.01602" rx=".30000001" ry=".30000001"/>
      <rect style="fill:#4d4d4d;stroke-width:1.07682" id="rect3719" width="24.996719" height=".98267198" x="223.97766" y="486.63596" rx=".30000001" ry=".30000001"/>
      <rect style="fill:#4d4d4d;stroke-width:1.07682" id="rect3721" width="24.996719" height=".98267198" x="223.87317" y="488.20367" rx=".30000001" ry=".30000001"/>
      <rect style="fill:#4d4d4d;stroke-width:1.07682" id="rect3723" width="24.996719" height=".98267198" x="224.00378" y="489.77139" rx=".30000001" ry=".30000001"/>
      <rect style="fill:#4d4d4d;stroke-width:1.07682" id="rect3725" width="24.996719" height=".98267198" x="224.00378" y="491.39136" rx=".30000001" ry=".30000001"/>
      <rect style="fill:#4d4d4d;stroke-width:1.07682" id="rect3727" width="24.996719" height=".98267198" x="224.05603" y="493.01129" rx=".30000001" ry=".30000001"/>
    </g>
    <g id="g3683" style="display:inline">
      <path style="display:inline;fill:red;stroke-width:1;stroke:#000;stroke-opacity:1;stroke-dasharray:none;paint-order:markers stroke fill" id="rect3667" d="M201.25661 459.32928h20.394497v35.642319H201.25661z"/>
      <g id="g3681" style="display:inline;stroke:#000;stroke-opacity:1;paint-order:markers stroke fill;stroke-width:.5;stroke-dasharray:none">
        <path style="display:inline;fill:#333;stroke:#000;stroke-opacity:1;paint-order:markers stroke fill;stroke-width:.4951927;stroke-dasharray:none" id="path3669" d="M139.242 462.36845c-.0392.0229-1.09642.0276-1.13587.005-.0395-.0225-.57214-.93572-.57234-.98116-.0002-.0454.52429-.96334.56353-.98623.0393-.0229 1.09643-.0276 1.13588-.005.0394.0225.57213.93572.57234.98115.0002.0454-.52429.96335-.56354.98624z" transform="matrix(.95849 0 0 1.06366 70.501942 -29.790371)"/>
        <path style="display:inline;fill:#333;stroke:#000;stroke-opacity:1;paint-order:markers stroke fill;stroke-width:.52299287;stroke-dasharray:none" id="path3671" d="M139.242 462.36845c-.0392.0229-1.09642.0276-1.13587.005-.0395-.0225-.57214-.93572-.57234-.98116-.0002-.0454.52429-.96334.56353-.98623.0393-.0229 1.09643-.0276 1.13588-.005.0394.0225.57213.93572.57234.98115.0002.0454-.52429.96335-.56354.98624z" transform="matrix(.95849 0 0 .95359 87.104682 20.7893)"/>
        <path style="display:inline;fill:#333;stroke:#000;stroke-opacity:1;paint-order:markers stroke fill;stroke-width:.5;stroke-dasharray:none" id="path3673" d="M139.242 462.36845c-.0392.0229-1.09642.0276-1.13587.005-.0395-.0225-.57214-.93572-.57234-.98116-.0002-.0454.52429-.96334.56353-.98623.0393-.0229 1.09643-.0276 1.13588-.005.0394.0225.57213.93572.57234.98115.0002.0454-.52429.96335-.56354.98624z" transform="translate(81.068178 14.93371)"/>
        <path style="display:inline;fill:#333;stroke:#000;stroke-opacity:1;paint-order:markers stroke fill;stroke-width:.5;stroke-dasharray:none" id="path3675" d="M139.242 462.36845c-.0392.0229-1.09642.0276-1.13587.005-.0395-.0225-.57214-.93572-.57234-.98116-.0002-.0454.52429-.96334.56353-.98623.0393-.0229 1.09643-.0276 1.13588-.005.0394.0225.57213.93572.57234.98115.0002.0454-.52429.96335-.56354.98624z" transform="translate(81.231704 31.940366)"/>
        <path style="display:inline;fill:#333;stroke:#000;stroke-opacity:1;paint-order:markers stroke fill;stroke-width:.5;stroke-dasharray:none" id="path3677" d="M139.242 462.36845c-.0392.0229-1.09642.0276-1.13587.005-.0395-.0225-.57214-.93572-.57234-.98116-.0002-.0454.52429-.96334.56353-.98623.0393-.0229 1.09643-.0276 1.13588-.005.0394.0225.57213.93572.57234.98115.0002.0454-.52429.96335-.56354.98624z" transform="translate(64.470337 15.015473)"/>
        <path style="display:inline;fill:#333;stroke:#000;stroke-opacity:1;paint-order:markers stroke fill;stroke-width:.5;stroke-dasharray:none" id="path3679" d="M139.242 462.36845c-.0392.0229-1.09642.0276-1.13587.005-.0395-.0225-.57214-.93572-.57234-.98116-.0002-.0454.52429-.96334.56353-.98623.0393-.0229 1.09643-.0276 1.13588-.005.0394.0225.57213.93572.57234.98115.0002.0454-.52429.96335-.56354.98624z" transform="translate(64.061523 31.858603)"/>
      </g>
    </g>
  </g>
  <g id="layer3">
    <path id="path1569" style="display:inline;fill:#333;stroke:#000;stroke-width:1.80917;stroke-dasharray:none;stroke-opacity:1;paint-order:markers stroke fill" d="M467.86263 363.85709v24.71405h-.14467c.0964 1.88.18904 3.75847.28542 5.17977.0964 1.42129.19296 2.38545.57866 3.49362.3857 1.10816 1.06273 2.36218 1.97838 3.39783.91565 1.03564 2.07208 1.85395 3.42112 2.67291 1.34903.81895 2.89167 1.63908 4.74656 2.60265 1.85489.96357 4.02112 2.07168 6.04463 3.05932 2.02352.98764 3.90356 1.85487 5.49334 3.01142 1.58977 1.15654 2.88906 2.59929 4.09361 3.75548 1.20455 1.1562 2.31178 2.02346 2.88938 3.32438.38044.85685.5229 1.8852.57475 2.74636-.008.0857-.0313.16797-.0313.25547v11.26008h-9.91147v-8.79474c0-.43117-.42611-.7792-.954-.7792h-17.34019c-.52789 0-.95009.34803-.95009.7792v23.28658c0 .43117.4222.7792.95009.7792h17.34019c.52789 0 .954-.34803.954-.7792v-4.38459h9.91147v6.77967c0 1.81163 1.78565 3.27009 4.00369 3.27009h32.20934c2.21805 0 4.00369-1.45846 4.00369-3.27009v-26.65247c.17348-.12902.16482-.32297.1564-.6323-.0236-.8667.0245-2.60146.60211-3.90238.5776-1.30092 1.68483-2.16818 2.88938-3.32438 1.20455-1.1562 2.50776-2.60214 4.09752-3.75868 1.58978-1.15655 3.46592-2.02378 5.48943-3.01141 2.02351-.98764 4.19366-2.09575 6.04854-3.05932 1.85489-.96357 3.39753-1.78052 4.74656-2.59946 1.34904-.81896 2.50547-1.64046 3.42112-2.67611.91565-1.03565 1.58878-2.28647 1.97448-3.39463.38569-1.10817.48225-2.07234.57865-3.49362.0964-1.4213.19293-3.29977.28933-5.17977h-.2776v-24.67573z" transform="matrix(.49954 0 0 .6116 45.157147 141.13509)"/>
    <path id="rect1380" style="display:inline;fill:#333;stroke:#000;stroke-width:1;stroke-linecap:square;stroke-dasharray:none;stroke-opacity:1;paint-order:markers stroke fill" d="M404.08524 364.39335v24.7168h-.14453c.0964 1.88.19268 3.75839.28906 5.17968.0964 1.42129.19242 2.38402.57812 3.49219.3857 1.10816 1.06092 2.36084 1.97657 3.39649.91565 1.03565 2.07283 1.85487 3.42187 2.67382 1.34903.81895 2.88925 1.638 4.74414 2.60157 1.85489.96357 4.02337 2.07291 6.04688 3.06054 2.02351.98764 3.90241 1.85322 5.49218 3.00977 1.58977 1.15654 2.89116 2.60357 4.09571 3.75977 1.20455 1.15619 2.31302 2.0233 2.89062 3.32421.31995.72061.46818 1.56267.54102 2.32813v11.92969h-9.58789v-9.09571c0-.2637-.21286-.47461-.47657-.47461h-9.26562c-.2637 0-.47656.21091-.47656.47461v23.89258c0 .26371.21286.47656.47656.47656h9.26562c.26371 0 .47657-.21285.47657-.47656v-4.68555h9.58789v8.04883c0 1.108.892 2 2 2h36.21679c1.108 0 2-.892 2-2v-27.91601c.18088-.12887.16479-.32724.15625-.64063-.0236-.8667.0259-2.60142.60352-3.90234.5776-1.30092 1.68608-2.16802 2.89063-3.32422 1.20454-1.1562 2.50398-2.60127 4.09375-3.75781 1.58977-1.15655 3.46866-2.02408 5.49218-3.01172 2.02351-.98764 4.19199-2.09503 6.04688-3.0586 1.85489-.96356 3.39706-1.78261 4.74609-2.60156 1.34904-.81896 2.50427-1.63818 3.41992-2.67383.91565-1.03564 1.59087-2.28832 1.97657-3.39648.3857-1.10817.48172-2.0709.57812-3.49219.0964-1.4213.19266-3.30164.28906-5.18164h-.27734v-24.67578z" transform="translate(.03455891 -.51835043)"/>
  </g>
  <g id="g5057" transform="matrix(.79225 0 0 1 -40.646741 -18.262819)">
    <g id="g5051" style="display:inline">
      <path style="display:inline;opacity:.24;fill:#ffd42a;fill-opacity:1;stroke-width:1.22959" id="rect5049" d="M80.945892 295.06836h511.58652v4.4508858H80.945892z"/>
    </g>
    <g id="g5055" style="display:inline">
      <path style="fill:url(#linearGradient6312);fill-opacity:1" id="rect5053" d="M80.653328 295.83441h511.58652v2.9439123H80.653328z"/>
    </g>
  </g>
  <g id="layer1" style="display:inline">
    <path style="display:inline;fill:#999;stroke:#000;stroke-width:1.00001;stroke-linecap:square;stroke-linejoin:miter;stroke-dasharray:none;stroke-opacity:1;paint-order:markers stroke fill" id="rect274-3-9" d="M249.39799 224.65349H358.398v108.99999H249.39799z"/>
    <path style="display:inline;fill:gray;fill-opacity:1;stroke:#000;stroke-width:1;stroke-linecap:square;stroke-linejoin:miter;stroke-miterlimit:4;stroke-dasharray:none;stroke-opacity:1;paint-order:markers stroke fill" id="path15021-1" d="m3 4.9999997-5.8301268.098076-3-4.99999974L-3-4.9999997l5.8301268-.098076 3 4.99999974z" transform="matrix(.78035 0 0 .78035 258.898 324.15349)"/>
    <path style="display:inline;fill:#999;stroke:#000;stroke-width:.999808;stroke-linecap:square;stroke-linejoin:miter;stroke-miterlimit:4;stroke-dasharray:none;stroke-opacity:1;paint-order:markers stroke fill" id="rect274-3-9-9-1" d="M224.3979 259.65338h24.000193v39.000191H224.3979z"/>
    <path style="display:inline;fill:#999;stroke:#000;stroke-width:.999901;stroke-linecap:square;stroke-linejoin:miter;stroke-dasharray:none;stroke-opacity:1;paint-order:markers stroke fill" id="rect274-3-9-0" d="M124.39795 229.65344h99.000099v99.000099H124.39795z"/>
    <rect style="display:inline;fill:#999;stroke:#000;stroke-width:.999801;stroke-linecap:square;stroke-linejoin:miter;stroke-miterlimit:4;stroke-dasharray:none;stroke-opacity:1;paint-order:markers stroke fill" id="rect274-3-9-9-1-8" width="59.000202" height="84.000198" x="424.39789" y="109.65339" ry="0" onmouseover="document.getElementById('source-chamber').style.fill = '#FFFF00';" onmouseout="document.getElementById('source-chamber').style.fill = '#999999';"/>
    <rect style="display:inline;fill:#999;stroke:#000;stroke-width:1.00002;stroke-linecap:square;stroke-linejoin:miter;stroke-miterlimit:4;stroke-dasharray:none;stroke-opacity:1;paint-order:markers stroke fill" id="rect274-3-9-9-1-8-5" width="38.999985" height="118.99998" x="154.39801" y="109.65349" ry="0"/>
    <rect style="display:inline;fill:#999;stroke:#000;stroke-width:1.00004;stroke-linecap:square;stroke-linejoin:miter;stroke-miterlimit:4;stroke-dasharray:none;stroke-opacity:1;paint-order:markers stroke fill" id="rect274-3-9-9-1-8-5-5" width="68.999954" height="28.999954" x="269.39801" y="194.6535" ry="0"/>
    <rect style="display:inline;fill:#999;stroke:#000;stroke-width:.999905;stroke-linecap:square;stroke-linejoin:miter;stroke-miterlimit:4;stroke-dasharray:none;stroke-opacity:1;paint-order:markers stroke fill" id="rect274-3-9-9-1-8-5-5-5" width="79.000092" height="4.0000949" x="264.39795" y="189.65343" ry="0"/>
    <rect style="display:inline;fill:#999;stroke:#000;stroke-width:.999904;stroke-linecap:square;stroke-linejoin:miter;stroke-miterlimit:4;stroke-dasharray:none;stroke-opacity:1;paint-order:markers stroke fill" id="rect274-3-9-9-1-8-5-5-2" width="14.000096" height="11.000097" x="296.89795" y="177.65344" ry="0"/>
    <rect style="display:inline;fill:#999;stroke:#000;stroke-width:.999963;stroke-linecap:square;stroke-linejoin:miter;stroke-miterlimit:4;stroke-dasharray:none;stroke-opacity:1;paint-order:markers stroke fill" id="rect274-3-9-9-1-8-5-5-6" width="69.000038" height="29.000036" x="269.39798" y="334.65344" ry="0"/>
    <rect style="display:inline;fill:#999;stroke:#000;stroke-width:.999983;stroke-linecap:square;stroke-linejoin:miter;stroke-miterlimit:4;stroke-dasharray:none;stroke-opacity:1;paint-order:markers stroke fill" id="rect274-3-9-9-1-8-5-5-6-4" width="39.000015" height="34.001369" x="154.39799" y="329.65347" ry="0"/>
    <path style="opacity:1;fill:gray;fill-opacity:1;stroke:#000;stroke-width:1;stroke-linecap:square;stroke-linejoin:miter;stroke-miterlimit:4;stroke-dasharray:none;stroke-opacity:1;paint-order:markers stroke fill" id="path15021" d="m3 4.9999997-5.8301268.098076-3-4.99999974L-3-4.9999997l5.8301268-.098076 3 4.99999974z" transform="matrix(.78035 0 0 .78035 213.898 239.15349)"/>
    <path style="display:inline;fill:gray;fill-opacity:1;stroke:#000;stroke-width:1;stroke-linecap:square;stroke-linejoin:miter;stroke-miterlimit:4;stroke-dasharray:none;stroke-opacity:1;paint-order:markers stroke fill" id="path15021-8" d="m3 4.9999997-5.8301268.098076-3-4.99999974L-3-4.9999997l5.8301268-.098076 3 4.99999974z" transform="matrix(.78035 0 0 .78035 133.898 239.15349)"/>
    <path style="display:inline;fill:gray;fill-opacity:1;stroke:#000;stroke-width:1;stroke-linecap:square;stroke-linejoin:miter;stroke-miterlimit:4;stroke-dasharray:none;stroke-opacity:1;paint-order:markers stroke fill" id="path15021-84" d="m3 4.9999997-5.8301268.098076-3-4.99999974L-3-4.9999997l5.8301268-.098076 3 4.99999974z" transform="matrix(.78035 0 0 .78035 133.898 319.15349)"/>
    <path style="display:inline;fill:gray;fill-opacity:1;stroke:#000;stroke-width:1;stroke-linecap:square;stroke-linejoin:miter;stroke-miterlimit:4;stroke-dasharray:none;stroke-opacity:1;paint-order:markers stroke fill" id="path15021-2" d="m3 4.9999997-5.8301268.098076-3-4.99999974L-3-4.9999997l5.8301268-.098076 3 4.99999974z" transform="matrix(.78035 0 0 .78035 213.898 319.15349)"/>
    <path style="display:inline;fill:gray;fill-opacity:1;stroke:#000;stroke-width:1;stroke-linecap:square;stroke-linejoin:miter;stroke-miterlimit:4;stroke-dasharray:none;stroke-opacity:1;paint-order:markers stroke fill" id="path15021-7" d="m3 4.9999997-5.8301268.098076-3-4.99999974L-3-4.9999997l5.8301268-.098076 3 4.99999974z" transform="matrix(.78035 0 0 .78035 258.898 234.15349)"/>
    <path style="display:inline;fill:gray;fill-opacity:1;stroke:#000;stroke-width:1;stroke-linecap:square;stroke-linejoin:miter;stroke-miterlimit:4;stroke-dasharray:none;stroke-opacity:1;paint-order:markers stroke fill" id="path15021-89" d="m3 4.9999997-5.8301268.098076-3-4.99999974L-3-4.9999997l5.8301268-.098076 3 4.99999974z" transform="matrix(.78035 0 0 .78035 348.898 234.15349)"/>
    <path style="display:inline;fill:gray;fill-opacity:1;stroke:#000;stroke-width:1;stroke-linecap:square;stroke-linejoin:miter;stroke-miterlimit:4;stroke-dasharray:none;stroke-opacity:1;paint-order:markers stroke fill" id="path15021-3" d="m3 4.9999997-5.8301268.098076-3-4.99999974L-3-4.9999997l5.8301268-.098076 3 4.99999974z" transform="matrix(.78035 0 0 .78035 348.898 324.15349)"/>
    <g id="source-chamber" onmouseover="style.fill('#FFFF');">
      <path style="display:inline;fill:#999;stroke:#000;stroke-width:1.00012;stroke-linecap:square;stroke-linejoin:miter;stroke-dasharray:none;stroke-opacity:1;paint-order:markers stroke fill" id="rect274-3-9-7" d="M384.39807 194.65355h138.99988v168.99988H384.39807z"/>
      <g id="g12703">
        <path style="display:inline;fill:gray;fill-opacity:1;stroke:#000;stroke-width:1;stroke-linecap:square;stroke-linejoin:miter;stroke-miterlimit:4;stroke-dasharray:none;stroke-opacity:1;paint-order:markers stroke fill" id="path15021-17" d="m3 4.9999997-5.8301268.098076-3-4.99999974L-3-4.9999997l5.8301268-.098076 3 4.99999974z" transform="matrix(.78035 0 0 .78035 393.898 204.15349)"/>
        <path style="display:inline;fill:gray;fill-opacity:1;stroke:#000;stroke-width:1;stroke-linecap:square;stroke-linejoin:miter;stroke-miterlimit:4;stroke-dasharray:none;stroke-opacity:1;paint-order:markers stroke fill" id="path15021-37" d="m3 4.9999997-5.8301268.098076-3-4.99999974L-3-4.9999997l5.8301268-.098076 3 4.99999974z" transform="matrix(.78035 0 0 .78035 513.898 204.15349)"/>
        <path style="display:inline;fill:gray;fill-opacity:1;stroke:#000;stroke-width:1;stroke-linecap:square;stroke-linejoin:miter;stroke-miterlimit:4;stroke-dasharray:none;stroke-opacity:1;paint-order:markers stroke fill" id="path15021-70" d="m3 4.9999997-5.8301268.098076-3-4.99999974L-3-4.9999997l5.8301268-.098076 3 4.99999974z" transform="matrix(.78035 0 0 .78035 513.898 354.15349)"/>
        <path style="display:inline;fill:gray;fill-opacity:1;stroke:#000;stroke-width:1;stroke-linecap:square;stroke-linejoin:miter;stroke-miterlimit:4;stroke-dasharray:none;stroke-opacity:1;paint-order:markers stroke fill" id="path15021-82" d="m3 4.9999997-5.8301268.098076-3-4.99999974L-3-4.9999997l5.8301268-.098076 3 4.99999974z" transform="matrix(.78035 0 0 .78035 393.898 354.15349)"/>
      </g>
    </g>
    <path style="display:inline;fill:#999;stroke:#000;stroke-width:.999808;stroke-linecap:square;stroke-linejoin:miter;stroke-miterlimit:4;stroke-dasharray:none;stroke-opacity:1;paint-order:markers stroke fill" id="rect274-3-9-9-1-7" d="M99.397911 259.65338h24.000193v39.000191H99.397911z"/>
    <path style="display:inline;fill:#999;stroke:#000;stroke-width:.999808;stroke-linecap:square;stroke-linejoin:miter;stroke-miterlimit:4;stroke-dasharray:none;stroke-opacity:1;paint-order:markers stroke fill" id="rect274-3-9-9-1-4" d="M359.39792 259.65338h24.000193v39.000191H359.39792z"/>
  </g>
  <g id="layer2">
    <g id="g487" style="display:inline" transform="translate(265.01521 -35.21032)">
      <g id="g449" style="display:inline">
        <path style="opacity:1;fill:#999;fill-opacity:1;stroke:#000;stroke-opacity:1;paint-order:markers stroke fill" id="rect445" d="M133.93692 218.85104h10.076354v10.24154H133.93692z"/>
        <path style="display:inline;opacity:1;fill:#333;fill-opacity:1;stroke-width:1;stroke:#000;stroke-opacity:1;stroke-dasharray:none;paint-order:markers stroke fill" id="rect447" d="M128.65096 189.15913h20.48308v29.691902h-20.48308z"/>
      </g>
      <rect style="fill:#ffd42a;stroke-width:.884725" id="rect451" width="3.9607351" height="29.591976" x="128.65446" y="189.13141" rx=".30000001" ry=".30000001"/>
      <rect style="fill:#ffd42a;stroke-width:.889752" id="rect453" width="4.0478096" height="29.656029" x="145.16731" y="189.13141" rx=".30000001" ry=".30000001"/>
      <rect style="fill:#ffd42a" id="rect455" width="4.2387009" height="3.9075525" x="134.30017" y="204.79671" rx=".30000001" ry=".30000001"/>
      <rect style="display:inline;fill:#ffd42a" id="rect457" width="4.2387009" height="3.9075525" x="139.2674" y="204.82982" rx=".30000001" ry=".30000001"/>
      <rect style="display:inline;fill:#ffd42a" id="rect459" width="4.2387009" height="3.9075525" x="134.23395" y="209.59836" rx=".30000001" ry=".30000001"/>
      <rect style="display:inline;fill:#ffd42a" id="rect461" width="4.2387009" height="3.9075525" x="139.33363" y="209.59836" rx=".30000001" ry=".30000001"/>
      <rect style="fill:#000" id="rect463" width="8.742321" height="9.4046173" x="134.49886" y="191.55077" rx=".30000001" ry=".30000001"/>
      <path style="display:inline;fill:#000" id="path465" d="m76.154502 210.04994-1.171932-.74241 1.228914-.64372z" transform="translate(64.844561 -1.4086983)"/>
      <path style="display:inline;fill:none;fill-rule:evenodd;stroke:#000" id="path467" d="M74.566543 206.06313c.294473-1.06746 1.43273-1.7135 2.500193-1.41903 1.067463.29448 1.7135 1.43273 1.419028 2.5002-.294473 1.06746-1.432729 1.7135-2.500193 1.41902" transform="matrix(.7099 0 0 .61717 87.016129 79.259272)"/>
      <rect style="display:inline;fill:#000" id="rect469" width=".80376971" height="2.3558769" x="142.22397" y="210.24005" ry=".30000001" rx=".30000001"/>
      <rect style="display:inline;fill:#000" id="rect471" width="2.4944577" height=".97006691" x="140.50557" y="211.68129" rx=".30000001" ry=".30000001"/>
      <path style="display:inline;fill:#000" id="path473" d="m76.274978 213.38701-1.402848-.79761 1.39217-.8161Z" transform="matrix(.84194 0 0 1 76.480385 -.40305264)"/>
      <g id="g479" style="display:inline">
        <path style="display:inline;fill:#000" id="path475" d="m72.640433 206.72257-2.113247.009 1.048474-1.83483z" transform="translate(64.806009 .16238307)"/>
        <rect style="display:inline;fill:#000" id="rect477" width="1.0088949" height="1.6646767" x="135.88264" y="206.73361" ry=".30000001" rx=".30000001"/>
      </g>
      <g id="g485" style="display:inline" transform="matrix(1 0 0 -1 -.05044475 419.99354)">
        <path style="display:inline;fill:#000" id="path481" d="m72.640433 206.72257-2.113247.009 1.048474-1.83483z" transform="translate(64.806009 1.8554067)"/>
        <rect style="display:inline;fill:#000" id="rect483" width="1.0088949" height="1.6646767" x="135.88264" y="208.42664" ry=".30000001" rx=".30000001"/>
      </g>
    </g>
    <g id="g758" style="display:inline" transform="translate(115.49403 -4.9591978)">
      <g id="g720" style="display:inline">
        <path style="opacity:1;fill:#999;fill-opacity:1;stroke:#000;stroke-opacity:1;paint-order:markers stroke fill" id="rect716" d="M133.93692 218.85104h10.076354v10.24154H133.93692z"/>
        <path style="display:inline;opacity:1;fill:#333;fill-opacity:1;stroke-width:1;stroke:#000;stroke-opacity:1;stroke-dasharray:none;paint-order:markers stroke fill" id="rect718" d="M128.65096 189.15913h20.48308v29.691902h-20.48308z"/>
      </g>
      <rect style="fill:#ffd42a;stroke-width:.884725" id="rect722" width="3.9607351" height="29.591976" x="128.65446" y="189.13141" rx=".30000001" ry=".30000001"/>
      <rect style="fill:#ffd42a;stroke-width:.889752" id="rect724" width="4.0478096" height="29.656029" x="145.16731" y="189.13141" rx=".30000001" ry=".30000001"/>
      <rect style="fill:#ffd42a" id="rect726" width="4.2387009" height="3.9075525" x="134.30017" y="204.79671" rx=".30000001" ry=".30000001"/>
      <rect style="display:inline;fill:#ffd42a" id="rect728" width="4.2387009" height="3.9075525" x="139.2674" y="204.82982" rx=".30000001" ry=".30000001"/>
      <rect style="display:inline;fill:#ffd42a" id="rect730" width="4.2387009" height="3.9075525" x="134.23395" y="209.59836" rx=".30000001" ry=".30000001"/>
      <rect style="display:inline;fill:#ffd42a" id="rect732" width="4.2387009" height="3.9075525" x="139.33363" y="209.59836" rx=".30000001" ry=".30000001"/>
      <rect style="fill:#000" id="rect734" width="8.742321" height="9.4046173" x="134.49886" y="191.55077" rx=".30000001" ry=".30000001"/>
      <path style="display:inline;fill:#000" id="path736" d="m76.154502 210.04994-1.171932-.74241 1.228914-.64372z" transform="translate(64.844561 -1.4086983)"/>
      <path style="display:inline;fill:none;fill-rule:evenodd;stroke:#000" id="path738" d="M74.566543 206.06313c.294473-1.06746 1.43273-1.7135 2.500193-1.41903 1.067463.29448 1.7135 1.43273 1.419028 2.5002-.294473 1.06746-1.432729 1.7135-2.500193 1.41902" transform="matrix(.7099 0 0 .61717 87.016129 79.259272)"/>
      <rect style="display:inline;fill:#000" id="rect740" width=".80376971" height="2.3558769" x="142.22397" y="210.24005" ry=".30000001" rx=".30000001"/>
      <rect style="display:inline;fill:#000" id="rect742" width="2.4944577" height=".97006691" x="140.50557" y="211.68129" rx=".30000001" ry=".30000001"/>
      <path style="display:inline;fill:#000" id="path744" d="m76.274978 213.38701-1.402848-.79761 1.39217-.8161Z" transform="matrix(.84194 0 0 1 76.480385 -.40305264)"/>
      <g id="g750" style="display:inline">
        <path style="display:inline;fill:#000" id="path746" d="m72.640433 206.72257-2.113247.009 1.048474-1.83483z" transform="translate(64.806009 .16238307)"/>
        <rect style="display:inline;fill:#000" id="rect748" width="1.0088949" height="1.6646767" x="135.88264" y="206.73361" ry=".30000001" rx=".30000001"/>
      </g>
      <g id="g756" style="display:inline" transform="matrix(1 0 0 -1 -.05044475 419.99354)">
        <path style="display:inline;fill:#000" id="path752" d="m72.640433 206.72257-2.113247.009 1.048474-1.83483z" transform="translate(64.806009 1.8554067)"/>
        <rect style="display:inline;fill:#000" id="rect754" width="1.0088949" height="1.6646767" x="135.88264" y="208.42664" ry=".30000001" rx=".30000001"/>
      </g>
    </g>
    <g id="g808" style="display:inline" transform="translate(-.16198127 -.07064475)">
      <g id="g770" style="display:inline">
        <path style="opacity:1;fill:#999;fill-opacity:1;stroke:#000;stroke-opacity:1;paint-order:markers stroke fill" id="rect766" d="M133.93692 218.85104h10.076354v10.24154H133.93692z"/>
        <path style="display:inline;opacity:1;fill:#333;fill-opacity:1;stroke-width:1;stroke-dasharray:none;stroke:#000;stroke-opacity:1;paint-order:markers stroke fill" id="rect768" d="M128.65096 189.15913h20.48308v29.691902h-20.48308z"/>
      </g>
      <rect style="fill:#ffd42a;stroke-width:.884725" id="rect772" width="3.9607351" height="29.591976" x="128.65446" y="189.13141" rx=".30000001" ry=".30000001"/>
      <rect style="fill:#ffd42a;stroke-width:.889752" id="rect774" width="4.0478096" height="29.656029" x="145.16731" y="189.13141" rx=".30000001" ry=".30000001"/>
      <rect style="fill:#ffd42a" id="rect776" width="4.2387009" height="3.9075525" x="134.30017" y="204.79671" rx=".30000001" ry=".30000001"/>
      <rect style="display:inline;fill:#ffd42a" id="rect778" width="4.2387009" height="3.9075525" x="139.2674" y="204.82982" rx=".30000001" ry=".30000001"/>
      <rect style="display:inline;fill:#ffd42a" id="rect780" width="4.2387009" height="3.9075525" x="134.23395" y="209.59836" rx=".30000001" ry=".30000001"/>
      <rect style="display:inline;fill:#ffd42a" id="rect782" width="4.2387009" height="3.9075525" x="139.33363" y="209.59836" rx=".30000001" ry=".30000001"/>
      <rect style="fill:#000" id="rect784" width="8.742321" height="9.4046173" x="134.49886" y="191.55077" rx=".30000001" ry=".30000001"/>
      <path style="display:inline;fill:#000" id="path786" d="m76.154502 210.04994-1.171932-.74241 1.228914-.64372z" transform="translate(64.844561 -1.4086983)"/>
      <path style="display:inline;fill:none;fill-rule:evenodd;stroke:#000" id="path788" d="M74.566543 206.06313c.294473-1.06746 1.43273-1.7135 2.500193-1.41903 1.067463.29448 1.7135 1.43273 1.419028 2.5002-.294473 1.06746-1.432729 1.7135-2.500193 1.41902" transform="matrix(.7099 0 0 .61717 87.016129 79.259272)"/>
      <rect style="display:inline;fill:#000" id="rect790" width=".80376971" height="2.3558769" x="142.22397" y="210.24005" ry=".30000001" rx=".30000001"/>
      <rect style="display:inline;fill:#000" id="rect792" width="2.4944577" height=".97006691" x="140.50557" y="211.68129" rx=".30000001" ry=".30000001"/>
      <path style="display:inline;fill:#000" id="path794" d="m76.274978 213.38701-1.402848-.79761 1.39217-.8161Z" transform="matrix(.84194 0 0 1 76.480385 -.40305264)"/>
      <g id="g800" style="display:inline">
        <path style="display:inline;fill:#000" id="path796" d="m72.640433 206.72257-2.113247.009 1.048474-1.83483z" transform="translate(64.806009 .16238307)"/>
        <rect style="display:inline;fill:#000" id="rect798" width="1.0088949" height="1.6646767" x="135.88264" y="206.73361" ry=".30000001" rx=".30000001"/>
      </g>
      <g id="g806" style="display:inline" transform="matrix(1 0 0 -1 -.05044475 419.99354)">
        <path style="display:inline;fill:#000" id="path802" d="m72.640433 206.72257-2.113247.009 1.048474-1.83483z" transform="translate(64.806009 1.8554067)"/>
        <rect style="display:inline;fill:#000" id="rect804" width="1.0088949" height="1.6646767" x="135.88264" y="208.42664" ry=".30000001" rx=".30000001"/>
      </g>
    </g>
  </g>
  <path id="rect2080" style="fill:#333;stroke:#000;stroke-opacity:1;paint-order:markers stroke fill" d="M143.63594 364.25983v19.9336h-13.75v-.98633h-3.31641v12.51172h3.31641v-.94532h13.75v4.29493h59.95508v-34.8086h-59.95508z" transform="translate(.36210735 -.26764479)"/>
  <g id="g5709" transform="translate(-40.002857 -5.280475)" style="fill:#4d4d4d">
    <path style="display:inline;fill:#4d4d4d;stroke:#000;stroke-opacity:1;paint-order:markers stroke fill" id="path5677" d="m8.9419873 290.09869-17.8806664.006 8.93537091-15.48798z" transform="translate(63.898003 -.84651185)"/>
    <ellipse style="fill:#4d4d4d" id="ellipse5679" cx="62.264503" cy="284.40021" rx="1.7941729" ry="1.6870581"/>
    <path style="fill:#4d4d4d;stroke-width:1.04078" id="rect5681" d="M58.060249 284.21274h12.318202v.40169284H58.060249z"/>
    <path style="fill:#4d4d4d;stroke-width:.851652" id="rect5683" transform="matrix(-.00149 -1 .99974 -.02284 0 0)" d="M-289.89624 61.680908h8.2448883v.40185043h-8.2448883z"/>
    <path id="path5685" style="fill:#4d4d4d;stroke-width:.914982" d="M57.286675 281.49333c-.0013-.0007-.0058-.00016-.0078.002-.0055.003-.0089.009-.0098.0137v.004c.0082-.002.01557-.0119.02148-.0195zm1.523438.70508c-.03484.0437-.06788.0885-.09961.13477-.02552.0417-.04842.088-.06836.13281l7.585937 4.18359c.01948-.0226.03798-.045.05664-.0684.03636-.0371.06636-.0794.09375-.12304.01322-.0205.02668-.0399.03906-.0605z"/>
    <path id="path5687" style="fill:#4d4d4d;stroke-width:.835174" d="M59.484261 279.32433c-.0047.003-.009.009-.01327.0122l-.01078-.0187zm.968919 1.21641 4.180029 7.65245c-.033.0108-.06554.0231-.0987.0349-.05786.0191-.114679.0431-.166842.0739l-4.166839-7.62708c.01516-.0114.03091-.0223.04659-.0331.02547-.02.0496-.0394.08087-.0495.04286-.0155.08408-.032.125066-.0516zm4.745616 8.68638.01705.0324-.04178-.0133c.0087-.005.01638-.0115.02493-.0191z"/>
    <path id="path5689" style="fill:#4d4d4d;stroke-width:.92416" d="M67.478081 281.19646c.0066.008.0149.0166.02344.0176v-.004c-.0012-.006-.0058-.009-.01172-.0117-.0023-.001-.0065-.003-.0078-.002zm-1.505859.82031-7.486328 4.76563c.01433.0194.02975.0374.04492.0566.0315.0407.06327.0796.103515.11328.021.0218.04266.0437.06445.0644l7.466797-4.75c-.02396-.0425-.05063-.0859-.08008-.125-.03618-.0432-.07409-.0847-.113281-.125z"/>
    <path id="path5691" style="fill:#4d4d4d;stroke-width:.835174" d="M65.191794 279.32433c.0047.003.009.009.01327.0122l.01078-.0187zm-.96892 1.21641-4.180029 7.65245c.033.0108.06554.0231.0987.0349.05786.0191.11468.0431.166843.0739l4.166838-7.62708c-.01516-.0114-.03091-.0223-.04659-.0331-.02547-.02-.0496-.0394-.08087-.0495-.04286-.0155-.08408-.032-.125065-.0516zm-4.745615 8.68638-.01705.0324.04178-.0133c-.0087-.005-.01638-.0115-.02493-.0191z"/>
    <g id="g5707" style="display:inline;fill:#4d4d4d" transform="matrix(1.0624 0 0 1.03725 .12017945 -10.624077)">
      <path id="path5693" style="display:inline;fill:#4d4d4d;stroke-width:.709347" d="M57.998605 281.64392c-.0089.00079-.01712.003-.02583.003-.02314.005-.04498.008-.06802.0132-.02606.008-.05164.0205-.07722.0301-.03404.0106-.06735.0225-.102956.0263-.02993.003-.05993.005-.09008.006l1.531395 5.64895.397096.0471z"/>
      <path id="path5695" style="display:inline;fill:#4d4d4d;stroke-width:.709347" d="m59.563094 281.37653-.397097.0471-1.625155 5.99543.397096-.0471z"/>
      <path id="path5697" style="display:inline;fill:#4d4d4d;stroke-width:.709347" d="M55.661988 283.40263c-.000044.002.000001.004.000015.006h.0019c-.000044-.00097-.00027-.003-.00001-.004zm.04044.0113c-.00032.005-.0017.01-.0019.0151h.0019c.000025-.00095-.000007-.003-.00001-.004l-.000005-.002c-.000175-.005.000123-.008.0018-.009zm.01838.006c.000551.002-.000086.003.000015.006.000169.0113.000712.0227.000027.0339-.000661.01-.0032.0205-.0055.0301-.0016.008-.003.0149-.0055.0226-.0027.006-.0053.014-.0073.0207-.0033.007-.0046.013-.0073.0207-.0027.006-.0061.014-.0073.0207-.0019.007-.0027.013-.0037.0207-.0022.009-.0034.0205-.0055.0302-.0016.008-.0031.0165-.0055.0244.0035.001.0071.004.0074.0118.000358.0118-.0012.024-.0018.0357-.00025.002.000106.003.00001.004l.000005.002c-.00007.00084.000234.01-.000023.0113-.000951.0104-.0077.0136-.01287.0113.000171.001-.000109.003.00001.004.000964.0103.000138.0216.000021.032l.000027.0339 5.960143 1.70992-.04048-.39543zm-.05883.18265c.000069.003.000041.005.000019.008.000373-.003.001-.005.0019-.007z"/>
      <path id="path5699" style="display:inline;fill:#4d4d4d;stroke-width:.709347" d="M56.748489 282.11843c-.0021.002-.0036.004-.0048.006-.03109.0251-.06327.05-.09557.0735-.02525.0182-.04985.0363-.0772.0508-.000792.003-.0016.007-.0058.009-.0083.007-.01705.0122-.026.0185-.0071.005-.0146.0123-.02197.017-.0045.005-.0093.007-.01462.0114-.0055.005-.014.009-.02006.0134-.0062.004-.01214.007-.0181.0116-.0042.002-.0076.006-.01126.009l4.075758 4.46832.37319-.13746z"/>
      <path id="path5701" style="display:inline;fill:#4d4d4d;stroke-width:.709347" d="M56.748489 282.11843c-.0021.002-.0036.004-.0048.006-.03109.0251-.06327.05-.09557.0735-.02525.0182-.04985.0363-.0772.0508-.000792.003-.0016.007-.0058.009-.0083.007-.01705.0122-.026.0185-.0071.005-.0146.0123-.02197.017-.0045.005-.0093.007-.01462.0114-.0055.005-.014.009-.02006.0134-.0062.004-.01214.007-.0181.0116-.0042.002-.0076.006-.01126.009l4.075758 4.46832.37319-.13746z"/>
      <path id="path5703" style="display:inline;fill:#4d4d4d;stroke-width:.709347" d="m61.620274 283.37061-5.961964 1.74742-.03858.3973 5.961964-1.74742z"/>
      <path id="path5705" style="display:inline;fill:#4d4d4d;stroke-width:.709347" d="m60.642239 281.98098-4.215472 4.56435.170672.35997 4.21547-4.56247z"/>
    </g>
  </g>
  <g id="layer4">
    <ellipse style="fill:maroon;stroke-width:.697593" id="path836" cx="32.56144" cy="471.54736" rx="15.57327" ry="4.2389007"/>
    <path style="fill:maroon;stroke-width:.694687" id="rect937" d="M17.938551 410.38223h29.224394v61.766834H17.938551z"/>
    <path style="fill:#4d4d4d;stroke-width:.694687" id="rect1303" d="M29.343193 380.40717h6.8903041v19.680609H29.343193z"/>
    <ellipse style="fill:maroon;stroke-width:.718186" id="path1017" cx="32.540062" cy="411.20291" rx="14.601511" ry="13.927815"/>
    <path style="fill:#4d4d4d" id="path1413" d="m50.578401 355.2071-15.884021.24118-5.137808-15.03207 12.708682-9.53151 12.992205 9.14127z" transform="matrix(.61538 0 0 .31266 6.53391 270.67189)"/>
    <path style="fill:#4d4d4d" id="rect1415" d="M24.830967 386.51614h15.784025v3.2722981H24.830967z"/>
    <path style="fill:#666;stroke-width:.999996" id="rect1697" d="M19.780813 413.44748h25.617868v57.020416H19.780813z"/>
    <text xml:space="preserve" id="text1751" style="font-size:24px;white-space:pre;shape-inside:url(#rect1753);fill:#666"><tspan x="24.171875" y="490.04241" id="tspan2007">O</tspan></text>
    <text xml:space="preserve" style="font-size:24px;fill:#666" x="27.064039" y="423.72781" id="text1759"/>
    <text xml:space="preserve" id="text1767" style="font-size:13.3333px;white-space:pre;shape-inside:url(#rect1769);fill:#000" transform="translate(5.1648928 .20659571)"><tspan x="22.105469" y="428.04133" id="tspan2009">O
</tspan><tspan x="22.105469" y="444.70795" id="tspan2011">C
</tspan><tspan x="22.105469" y="461.37458" id="tspan2013">S
</tspan><tspan x="22.105469" y="481.54914" id="tspan2017"><tspan dx="0 9.3098726" id="tspan2015">CS</tspan></tspan></text>
  </g>
</svg>
